<svg xmlns="http://www.w3.org/2000/svg" version="1.1" xmlns:xlink="http://www.w3.org/1999/xlink" xmlns:svgjs="http://svgjs.dev/svgjs" width="2000" height="691" viewBox="0 0 2000 691"><g transform="matrix(1,0,0,1,-1.2112696095522324,0.6607143532868918)"><svg viewBox="0 0 396 137" data-background-color="#ffffff" preserveAspectRatio="xMidYMid meet" height="691" width="2000" xmlns="http://www.w3.org/2000/svg" xmlns:xlink="http://www.w3.org/1999/xlink"><g id="tight-bounds" transform="matrix(1,0,0,1,0.24008861730862918,-0.13099546512344773)"><svg viewBox="0 0 395.52 137.2619909302469" height="137.2619909302469" width="395.52"><g><svg viewBox="0 0 395.52 137.2619909302469" height="137.2619909302469" width="395.52"><g><svg viewBox="0 0 395.52 137.2619909302469" height="137.2619909302469" width="395.52"><g id="textblocktransform"><svg viewBox="0 0 395.52 137.2619909302469" height="137.2619909302469" width="395.52" id="textblock"><g><svg viewBox="0 0 395.52 101.32871387675522" height="101.32871387675522" width="395.52"><path d="M394.594 21.733C392.735 11.215 387.435 8.291 387.435 8.291 371.165-2.542 350.86-0.207 332.619 1.349 300.414 1.413 268.339 3.726 236.208 4.968 168.767 5.157 100.749 2.044 33.643 9.722 27.339 12.078-6.54 10.184 1.121 23.079 3.129 28.443 10.456 34.397 10.232 39.319 11.236 40.181 12.631 38.204 13.226 39.445 15.309 42.79 18.711 41.212 21.501 43.19 17.614 48.47 20.403 52.866 23.062 57.473 18.377 58.672 12.371 58.104 9.675 62.08 9.396 64.962 7.89 64.415 6.235 64.288 5.026 64.204 2.59 64.52 2.999 65.424 4.394 68.517-1.594 70.305 2.162 73.334-0.422 76.615 3.948 79.455 3.353 83.01 3.278 83.725 3.687 84.336 4.338 84.504 7.22 85.408 3.018 87.175 3.464 89.09 33.029 102.174 65.104 93.128 95.394 99.145 103.259 94.938 97.346 100.638 100.489 99.755 102.943 98.724 104.728 102.994 107.499 100.575 107.927 99.881 107.276 98.24 108.8 98.556 109.6 98.724 110.307 98.682 110.418 97.714 110.586 96.263 109.117 97.167 108.726 96.41 112.947 92.582 111.906 101.69 115.866 101.311 115.68 100.196 114.528 98.598 116.889 98.808 119.232 97.209 119.306 95.884 121.389 99.481 121.463 100.26 121.835 100.807 122.43 101.185 128.938 97.273 135.409 102.574 142.233 100.807 146.417 98.871 150.433 101.858 154.672 101.122 156.16 100.533 157.666 99.481 159.098 101.248 176.632 101.627 195.319 100.049 211.943 101.311 256.364 98.955 303.836 102.279 350.674 99.166 361.719 97.967 373.192 96.263 383.958 94.895 383.958 94.895 392.679 91.151 392.679 74.322S394.538 59.597 394.817 46.198C395.096 32.798 396.398 32.251 394.538 21.733Z" opacity="1" fill="#4b91f1" data-fill-palette-color="tertiary"></path><g transform="matrix(1,0,0,1,55.76832,26.068561146666667)"><svg width="283.98335999999995" viewBox="2 -38.85 282.27 48.900000000000006" height="49.19159158342189" data-palette-color="#ffffff"><path d="M2-36.25L25.55-36.25 25.55-31.05 16.4-31.05 16.4 0 10.95 0 10.95-31.05 2-31.05 2-36.25ZM23.7-10.25L23.7-10.25Q23.7-12.55 24.57-14.58 25.45-16.6 26.95-18.13 28.45-19.65 30.42-20.55 32.4-21.45 34.65-21.45L34.65-21.45Q36.15-21.45 37.4-21.08 38.65-20.7 39.55-20.15 40.45-19.6 41-19 41.55-18.4 41.75-17.95L41.75-17.95 41.95-20.9 46.05-20.9 46.05 0 41.75 0 41.75-2.65Q41.5-2.25 40.95-1.7 40.4-1.15 39.52-0.68 38.65-0.2 37.45 0.15 36.25 0.5 34.7 0.5L34.7 0.5Q32.3 0.5 30.27-0.38 28.25-1.25 26.8-2.73 25.35-4.2 24.52-6.15 23.7-8.1 23.7-10.25ZM28-10.5L28-10.5Q28-9.05 28.52-7.8 29.05-6.55 29.95-5.65 30.85-4.75 32.1-4.23 33.35-3.7 34.85-3.7L34.85-3.7Q36.35-3.7 37.62-4.23 38.9-4.75 39.82-5.68 40.75-6.6 41.25-7.83 41.75-9.05 41.75-10.5L41.75-10.5Q41.75-11.95 41.25-13.18 40.75-14.4 39.82-15.3 38.9-16.2 37.62-16.73 36.35-17.25 34.85-17.25L34.85-17.25Q33.35-17.25 32.1-16.73 30.85-16.2 29.95-15.3 29.05-14.4 28.52-13.18 28-11.95 28-10.5ZM51.5-28.9L51.5-28.9Q51.5-30.1 52.37-30.9 53.25-31.7 54.25-31.7L54.25-31.7Q55.25-31.7 56.09-30.9 56.95-30.1 56.95-28.9L56.95-28.9Q56.95-27.7 56.09-26.93 55.25-26.15 54.25-26.15L54.25-26.15Q53.25-26.15 52.37-26.93 51.5-27.7 51.5-28.9ZM56.3-20.9L56.3 0 52.05 0 52.05-20.9 56.3-20.9ZM62.29 0L62.29-20.9 66.04-20.9Q66.14-19.35 66.22-18.07 66.29-16.8 66.39-15.55L66.39-15.55Q67.54-18.25 69.42-19.83 71.29-21.4 74.44-21.45L74.44-21.45Q77.49-21.45 79.34-19.9 81.19-18.35 81.49-15.85L81.49-15.85Q82.74-18.4 84.57-19.9 86.39-21.4 89.49-21.45L89.49-21.45Q92.74-21.45 94.62-19.7 96.49-17.95 96.59-15.2L96.59-15.2 96.59 0 92.29 0 92.29-13.25Q92.19-14.85 91.22-15.98 90.24-17.1 88.04-17.2L88.04-17.2Q85.04-17.2 83.34-15.28 81.64-13.35 81.54-10.35L81.54-10.35 81.54 0 77.29 0 77.29-13.25Q77.19-14.85 76.17-15.98 75.14-17.1 73.04-17.2L73.04-17.2Q71.54-17.2 70.34-16.68 69.14-16.15 68.29-15.25 67.44-14.35 66.99-13.1 66.54-11.85 66.54-10.35L66.54-10.35 66.54 0 62.29 0ZM101.84-28.9L101.84-28.9Q101.84-30.1 102.72-30.9 103.59-31.7 104.59-31.7L104.59-31.7Q105.59-31.7 106.44-30.9 107.29-30.1 107.29-28.9L107.29-28.9Q107.29-27.7 106.44-26.93 105.59-26.15 104.59-26.15L104.59-26.15Q103.59-26.15 102.72-26.93 101.84-27.7 101.84-28.9ZM106.64-20.9L106.64 0 102.39 0 102.39-20.9 106.64-20.9ZM112.64 0L112.64-20.9 116.39-20.9Q116.49-19.35 116.56-18.07 116.64-16.8 116.74-15.55L116.74-15.55Q117.89-18.25 120.01-19.85 122.14-21.45 125.24-21.45L125.24-21.45Q128.39-21.45 130.29-19.7 132.19-17.95 132.29-15.2L132.29-15.2 132.29 0 127.99 0 127.99-13.25Q127.89-14.85 126.89-15.98 125.89-17.1 123.74-17.2L123.74-17.2Q122.24-17.2 120.99-16.68 119.74-16.15 118.84-15.25 117.94-14.35 117.41-13.1 116.89-11.85 116.89-10.35L116.89-10.35 116.89 0 112.64 0ZM136.69-10.4L136.69-10.4Q136.69-12.75 137.54-14.78 138.39-16.8 139.84-18.28 141.29-19.75 143.24-20.6 145.19-21.45 147.39-21.45L147.39-21.45Q149.09-21.45 150.41-21 151.74-20.55 152.64-19.95 153.54-19.35 154.06-18.78 154.59-18.2 154.74-17.95L154.74-17.95Q154.74-18.65 154.84-19.43 154.94-20.2 154.94-20.9L154.94-20.9 159.04-20.9 159.04-0.95Q159.04 4.25 155.99 7.15 152.94 10.05 147.74 10.05L147.74 10.05Q145.94 10.05 144.51 9.68 143.09 9.3 141.91 8.7 140.74 8.1 139.76 7.3 138.79 6.5 137.84 5.65L137.84 5.65 140.59 2.75Q142.14 4.2 143.76 5.05 145.39 5.9 147.64 5.9L147.64 5.9Q150.99 5.9 152.84 4.3 154.69 2.7 154.74-0.15L154.74-0.15 154.74-1.6Q154.74-2 154.84-2.48 154.94-2.95 154.94-3.2L154.94-3.2Q154.49-2.6 153.81-1.93 153.14-1.25 152.24-0.73 151.34-0.2 150.14 0.15 148.94 0.5 147.44 0.5L147.44 0.5Q145.09 0.5 143.14-0.35 141.19-1.2 139.74-2.68 138.29-4.15 137.49-6.13 136.69-8.1 136.69-10.4ZM140.99-10.5L140.99-10.5Q140.99-9.05 141.51-7.8 142.04-6.55 142.94-5.65 143.84-4.75 145.09-4.23 146.34-3.7 147.84-3.7L147.84-3.7Q149.34-3.7 150.61-4.23 151.89-4.75 152.81-5.68 153.74-6.6 154.24-7.83 154.74-9.05 154.74-10.5L154.74-10.5Q154.74-11.95 154.24-13.18 153.74-14.4 152.81-15.3 151.89-16.2 150.61-16.73 149.34-17.25 147.84-17.25L147.84-17.25Q146.34-17.25 145.09-16.73 143.84-16.2 142.94-15.3 142.04-14.4 141.51-13.18 140.99-11.95 140.99-10.5ZM169.63-23.9L165.23-23.9 165.23-36.5 169.83-36.5 169.63-23.9ZM186.98-19.05L186.98-19.05 184.73-16.05Q184.68-16.1 184.38-16.3 184.08-16.5 183.61-16.7 183.13-16.9 182.51-17.07 181.88-17.25 181.23-17.25L181.23-17.25Q180.38-17.25 179.56-16.85 178.73-16.45 178.73-15.35L178.73-15.35Q178.73-14.4 179.41-13.8 180.08-13.2 181.08-12.73 182.08-12.25 183.26-11.75 184.43-11.25 185.43-10.53 186.43-9.8 187.11-8.72 187.78-7.65 187.78-6L187.78-6Q187.78-3.2 185.86-1.38 183.93 0.45 180.58 0.45L180.58 0.45Q178.63 0.45 176.76-0.23 174.88-0.9 173.73-2.2L173.73-2.2Q174.08-2.55 174.51-3.1 174.93-3.65 175.36-4.15 175.78-4.65 176.06-4.98 176.33-5.3 176.38-5.3L176.38-5.3Q176.38-5.25 176.76-5 177.13-4.75 177.73-4.48 178.33-4.2 179.08-3.98 179.83-3.75 180.58-3.75L180.58-3.75Q181.78-3.75 182.63-4.35 183.48-4.95 183.48-5.95L183.48-5.95Q183.48-6.85 182.81-7.38 182.13-7.9 181.13-8.35 180.13-8.8 178.93-9.28 177.73-9.75 176.73-10.5 175.73-11.25 175.06-12.38 174.38-13.5 174.38-15.3L174.38-15.3Q174.38-17 175.01-18.15 175.63-19.3 176.61-20.03 177.58-20.75 178.78-21.08 179.98-21.4 181.08-21.4L181.08-21.4Q182.53-21.4 184.18-20.8 185.83-20.2 186.98-19.05ZM210.13-31.3L205.78-31.3 205.78-20.6 210.68-20.6Q213.38-20.6 214.73-22.2 216.08-23.8 216.08-26.1L216.08-26.1Q216.08-28.8 214.45-30.05 212.83-31.3 210.13-31.3L210.13-31.3ZM210.23-15.95L205.78-15.95 205.78-4.95 210.88-4.95Q212.33-4.95 213.6-5.3 214.88-5.65 215.83-6.33 216.78-7 217.33-8.05 217.88-9.1 217.88-10.5L217.88-10.5Q217.88-12.05 217.23-13.08 216.58-14.1 215.5-14.75 214.43-15.4 213.05-15.68 211.68-15.95 210.23-15.95L210.23-15.95ZM211.33 0L200.28 0 200.28-36.25 209.88-36.25Q212.53-36.25 214.68-35.73 216.83-35.2 218.33-34.08 219.83-32.95 220.65-31.18 221.48-29.4 221.48-26.85L221.48-26.85Q221.48-25.45 221.2-24.1 220.93-22.75 220.3-21.63 219.68-20.5 218.65-19.65 217.63-18.8 216.13-18.35L216.13-18.35Q217.43-18.1 218.7-17.5 219.98-16.9 220.98-15.88 221.98-14.85 222.6-13.35 223.23-11.85 223.23-9.8L223.23-9.8Q223.23-7.2 222.23-5.35 221.23-3.5 219.58-2.3 217.93-1.1 215.78-0.55 213.63 0 211.33 0L211.33 0ZM232.02-38.85L232.02 0 227.77 0 227.77-38.85 232.02-38.85ZM236.62-10.5L236.62-10.5Q236.62-12.75 237.5-14.75 238.37-16.75 239.87-18.23 241.37-19.7 243.4-20.58 245.42-21.45 247.77-21.45L247.77-21.45Q250.12-21.45 252.15-20.58 254.17-19.7 255.65-18.23 257.12-16.75 257.95-14.75 258.77-12.75 258.77-10.5L258.77-10.5Q258.77-8.25 257.95-6.25 257.12-4.25 255.65-2.75 254.17-1.25 252.15-0.38 250.12 0.5 247.72 0.5L247.72 0.5Q245.42 0.5 243.4-0.3 241.37-1.1 239.87-2.55 238.37-4 237.5-6.03 236.62-8.05 236.62-10.5ZM240.87-10.45L240.87-10.45Q240.87-9.05 241.4-7.83 241.92-6.6 242.85-5.68 243.77-4.75 245-4.23 246.22-3.7 247.62-3.7L247.62-3.7Q249.02-3.7 250.27-4.23 251.52-4.75 252.45-5.68 253.37-6.6 253.92-7.83 254.47-9.05 254.47-10.45L254.47-10.45Q254.47-11.85 253.92-13.1 253.37-14.35 252.45-15.28 251.52-16.2 250.27-16.73 249.02-17.25 247.62-17.25L247.62-17.25Q246.22-17.25 245-16.73 243.77-16.2 242.85-15.28 241.92-14.35 241.4-13.1 240.87-11.85 240.87-10.45ZM261.92-10.4L261.92-10.4Q261.92-12.75 262.77-14.78 263.62-16.8 265.07-18.28 266.52-19.75 268.47-20.6 270.42-21.45 272.62-21.45L272.62-21.45Q274.32-21.45 275.64-21 276.97-20.55 277.87-19.95 278.77-19.35 279.29-18.78 279.82-18.2 279.97-17.95L279.97-17.95Q279.97-18.65 280.07-19.43 280.17-20.2 280.17-20.9L280.17-20.9 284.27-20.9 284.27-0.95Q284.27 4.25 281.22 7.15 278.17 10.05 272.97 10.05L272.97 10.05Q271.17 10.05 269.74 9.68 268.32 9.3 267.14 8.7 265.97 8.1 264.99 7.3 264.02 6.5 263.07 5.65L263.07 5.65 265.82 2.75Q267.37 4.2 268.99 5.05 270.62 5.9 272.87 5.9L272.87 5.9Q276.22 5.9 278.07 4.3 279.92 2.7 279.97-0.15L279.97-0.15 279.97-1.6Q279.97-2 280.07-2.48 280.17-2.95 280.17-3.2L280.17-3.2Q279.72-2.6 279.04-1.93 278.37-1.25 277.47-0.73 276.57-0.2 275.37 0.15 274.17 0.5 272.67 0.5L272.67 0.5Q270.32 0.5 268.37-0.35 266.42-1.2 264.97-2.68 263.52-4.15 262.72-6.13 261.92-8.1 261.92-10.4ZM266.22-10.5L266.22-10.5Q266.22-9.05 266.74-7.8 267.27-6.55 268.17-5.65 269.07-4.75 270.32-4.23 271.57-3.7 273.07-3.7L273.07-3.7Q274.57-3.7 275.84-4.23 277.12-4.75 278.04-5.68 278.97-6.6 279.47-7.83 279.97-9.05 279.97-10.5L279.97-10.5Q279.97-11.95 279.47-13.18 278.97-14.4 278.04-15.3 277.12-16.2 275.84-16.73 274.57-17.25 273.07-17.25L273.07-17.25Q271.57-17.25 270.32-16.73 269.07-16.2 268.17-15.3 267.27-14.4 266.74-13.18 266.22-11.95 266.22-10.5Z" opacity="1" transform="matrix(1,0,0,1,0,0)" fill="#ffffff" class="wordmark-text-0" data-fill-palette-color="quaternary" id="text-0"></path></svg></g></svg></g><g transform="matrix(1,0,0,1,87.86722452679304,112.94166805140313)"><svg viewBox="0 0 219.7855509464139 24.320322878843783" height="24.320322878843783" width="219.7855509464139"><g transform="matrix(1,0,0,1,0,0)"><svg width="219.7855509464139" viewBox="4.58 -35.64 326.17 36.1" height="24.320322878843783" data-palette-color="#4b91f1"><path d="M23.1-3.51L23.1 0 4.58 0 4.58-33.27 8.44-33.27 8.44-3.51 23.1-3.51ZM31.7-29.82Q31.06-29.17 30.08-29.17 29.09-29.17 28.49-29.82 27.88-30.46 27.88-31.7 27.88-32.94 28.49-33.57 29.09-34.2 30.08-34.2 31.06-34.2 31.7-33.56 32.33-32.91 32.33-31.69 32.33-30.46 31.7-29.82ZM28.18-24.92L31.97-24.92 31.97 0 28.18 0 28.18-24.92ZM44.86-24.92L51.21-24.92 51.21-21.99 44.86-21.99 44.86 0 41.07 0 41.07-21.99 36.62-21.99 36.62-23.71 41.07-25.08 41.07-26.47Q41.07-35.64 49.11-35.64L49.11-35.64Q51.11-35.64 53.76-34.86L53.76-34.86 52.78-31.83Q50.65-32.53 49.03-32.53L49.03-32.53Q46.89-32.53 45.87-31.09 44.86-29.65 44.86-26.54L44.86-26.54 44.86-24.92ZM66.3 0.46L66.3 0.46Q60.76 0.46 57.55-2.91L57.55-2.91Q54.37-6.27 54.37-12.29 54.37-18.3 57.32-21.84L57.32-21.84Q60.33-25.38 65.17-25.38 70.01-25.38 72.74-22.3 75.47-19.21 75.47-14.18L75.47-14.18 75.47-11.78 58.28-11.78Q58.41-7.41 60.51-5.12 62.61-2.83 66.56-2.83 70.52-2.83 74.39-4.52L74.39-4.52 74.39-1.16Q72.44-0.3 70.62 0.08 68.8 0.46 66.3 0.46ZM58.38-14.86L71.43-14.86Q71.43-18.43 69.84-20.32 68.24-22.22 65.27-22.22 62.3-22.22 60.5-20.27 58.69-18.33 58.38-14.86L58.38-14.86ZM98.85-29.82Q98.22-29.17 97.23-29.17 96.25-29.17 95.64-29.82 95.03-30.46 95.03-31.7 95.03-32.94 95.64-33.57 96.25-34.2 97.23-34.2 98.22-34.2 98.85-33.56 99.48-32.91 99.48-31.69 99.48-30.46 98.85-29.82ZM95.34-24.92L99.13-24.92 99.13 0 95.34 0 95.34-24.92ZM123.22-6.8L123.22-6.8Q123.22-3.31 120.62-1.43 118.03 0.46 113.21 0.46 108.38 0.46 105.6-1.11L105.6-1.11 105.6-4.63Q109.49-2.65 113.43-2.65L113.43-2.65Q119.58-2.65 119.58-6.47L119.58-6.47Q119.58-7.94 118.29-8.99 117-10.04 113.48-11.36 109.97-12.69 108.43-13.68L108.43-13.68Q105.52-15.65 105.52-18.76 105.52-21.87 108-23.62 110.48-25.38 114.68-25.38 118.89-25.38 122.68-23.76L122.68-23.76 121.34-20.68Q117.63-22.22 114.76-22.22 111.89-22.22 110.51-21.4 109.14-20.58 109.14-19.06L109.14-19.06Q109.14-18.1 109.63-17.38 110.12-16.66 111.26-16.01 112.4-15.37 115.66-14.18L115.66-14.18Q120.11-12.54 121.66-10.91 123.22-9.28 123.22-6.8ZM161-14.21L147.22-14.21 147.22 0 143.36 0 143.36-33.27 161.89-33.27 161.89-29.83 147.22-29.83 147.22-17.64 161-17.64 161-14.21ZM168.91-6.85L168.91-6.85Q168.91-4.83 170.15-3.74 171.39-2.65 173.61-2.65L173.61-2.65Q177.18-2.65 179.17-4.59 181.17-6.52 181.17-10.01L181.17-10.01 181.17-12.26 177.4-12.11Q172.9-11.93 170.91-10.69 168.91-9.45 168.91-6.85ZM184.96-17.01L184.96 0 182.16 0 181.4-3.54 181.22-3.54Q179.35-1.21 177.51-0.38 175.66 0.46 172.88 0.46L172.88 0.46Q169.14 0.46 167.05-1.47 164.97-3.39 164.97-6.9L164.97-6.9Q164.97-14.43 177.03-14.81L177.03-14.81 181.27-14.94 181.27-16.48Q181.27-19.46 180.01-20.84 178.74-22.22 175.8-22.22 172.85-22.22 168.91-20.32L168.91-20.32 167.75-23.21Q171.69-25.35 176.19-25.35 180.69-25.35 182.83-23.36 184.96-21.36 184.96-17.01L184.96-17.01ZM213.57-16.25L213.57 0 209.78 0 209.78-16.13Q209.78-19.21 208.39-20.69 207-22.17 204.07-22.17L204.07-22.17Q200.15-22.17 198.33-20.06 196.51-17.95 196.51-13.07L196.51-13.07 196.51 0 192.72 0 192.72-24.92 195.8-24.92 196.41-21.51 196.59-21.51Q197.75-23.33 199.85-24.36 201.95-25.38 204.53-25.38L204.53-25.38Q209.08-25.38 211.32-23.18 213.57-20.98 213.57-16.25L213.57-16.25ZM225.38-21.99L225.38-7.33Q225.38-5.08 226.43-3.87 227.48-2.65 229.31-2.65 231.14-2.65 232.78-3.11L232.78-3.11 232.78-0.23Q232.2 0.05 230.95 0.25 229.7 0.46 228.81 0.46L228.81 0.46Q221.59 0.46 221.59-7.15L221.59-7.15 221.59-21.99 218.02-21.99 218.02-23.81 221.59-25.38 223.18-30.71 225.38-30.71 225.38-24.92 232.61-24.92 232.61-21.99 225.38-21.99ZM239.86-6.85L239.86-6.85Q239.86-4.83 241.1-3.74 242.34-2.65 244.56-2.65L244.56-2.65Q248.12-2.65 250.12-4.59 252.12-6.52 252.12-10.01L252.12-10.01 252.12-12.26 248.35-12.11Q243.85-11.93 241.86-10.69 239.86-9.45 239.86-6.85ZM255.91-17.01L255.91 0 253.1 0 252.35-3.54 252.17-3.54Q250.3-1.21 248.45-0.38 246.61 0.46 243.83 0.46L243.83 0.46Q240.09 0.46 238-1.47 235.92-3.39 235.92-6.9L235.92-6.9Q235.92-14.43 247.97-14.81L247.97-14.81 252.22-14.94 252.22-16.48Q252.22-19.46 250.96-20.84 249.69-22.22 246.75-22.22 243.8-22.22 239.86-20.32L239.86-20.32 238.7-23.21Q242.64-25.35 247.14-25.35 251.64-25.35 253.77-23.36 255.91-21.36 255.91-17.01L255.91-17.01ZM279.77-6.8L279.77-6.8Q279.77-3.31 277.18-1.43 274.59 0.46 269.76 0.46 264.93 0.46 262.15-1.11L262.15-1.11 262.15-4.63Q266.04-2.65 269.99-2.65L269.99-2.65Q276.13-2.65 276.13-6.47L276.13-6.47Q276.13-7.94 274.84-8.99 273.55-10.04 270.04-11.36 266.52-12.69 264.98-13.68L264.98-13.68Q262.08-15.65 262.08-18.76 262.08-21.87 264.55-23.62 267.03-25.38 271.24-25.38 275.45-25.38 279.24-23.76L279.24-23.76 277.9-20.68Q274.18-22.22 271.31-22.22 268.45-22.22 267.07-21.4 265.69-20.58 265.69-19.06L265.69-19.06Q265.69-18.1 266.18-17.38 266.68-16.66 267.81-16.01 268.95-15.37 272.21-14.18L272.21-14.18Q276.66-12.54 278.22-10.91 279.77-9.28 279.77-6.8ZM289.95-21.99L289.95-7.33Q289.95-5.08 291-3.87 292.05-2.65 293.89-2.65 295.72-2.65 297.36-3.11L297.36-3.11 297.36-0.23Q296.78 0.05 295.53 0.25 294.28 0.46 293.39 0.46L293.39 0.46Q286.16 0.46 286.16-7.15L286.16-7.15 286.16-21.99 282.6-21.99 282.6-23.81 286.16-25.38 287.76-30.71 289.95-30.71 289.95-24.92 297.18-24.92 297.18-21.99 289.95-21.99ZM305.85-29.82Q305.22-29.17 304.23-29.17 303.25-29.17 302.64-29.82 302.04-30.46 302.04-31.7 302.04-32.94 302.64-33.57 303.25-34.2 304.23-34.2 305.22-34.2 305.85-33.56 306.48-32.91 306.48-31.69 306.48-30.46 305.85-29.82ZM302.34-24.92L306.13-24.92 306.13 0 302.34 0 302.34-24.92ZM324.1 0.46L324.1 0.46Q318.67 0.46 315.68-2.88L315.68-2.88Q312.73-6.22 312.73-12.37 312.73-18.53 315.73-21.97L315.73-21.97Q318.77-25.38 324.33-25.38L324.33-25.38Q326.15-25.38 327.94-25 329.74-24.62 330.75-24.09L330.75-24.09 329.59-20.88Q326.78-22.04 324.25-22.04L324.25-22.04Q316.64-22.04 316.64-12.36L316.64-12.36Q316.64-7.74 318.51-5.28 320.38-2.83 324-2.83L324-2.83Q327.08-2.83 330.39-4.2L330.39-4.2 330.39-0.83Q327.89 0.46 324.1 0.46Z" opacity="1" transform="matrix(1,0,0,1,0,0)" fill="#4b91f1" class="slogan-text-1" data-fill-palette-color="secondary" id="text-1"></path></svg></g></svg></g></svg></g></svg></g><g></g></svg></g><defs></defs></svg><rect width="395.52" height="137.2619909302469" fill="none" stroke="none" visibility="hidden"></rect></g></svg></g></svg>